<?xml version="1.0" standalone="no"?>
<!DOCTYPE svg PUBLIC "-//W3C//DTD SVG 20010904//EN"
 "http://www.w3.org/TR/2001/REC-SVG-20010904/DTD/svg10.dtd">
<svg version="1.0" xmlns="http://www.w3.org/2000/svg"
 width="1024.000000pt" height="1024.000000pt" viewBox="0 0 1024.000000 1024.000000"
 preserveAspectRatio="xMidYMid meet">
<metadata>
Created by potrace 1.11, written by Peter Selinger 2001-2013
</metadata>
<g transform="translate(0.000000,1024.000000) scale(0.100000,-0.100000)"
fill="#000000" stroke="none">
<path d="M4938 9379 c-180 -7 -211 -10 -423 -40 -704 -100 -1409 -396 -1983
-832 -949 -720 -1556 -1831 -1662 -3042 -14 -162 -15 -979 -1 -1130 96 -1026
538 -1967 1262 -2682 661 -653 1525 -1068 2488 -1195 143 -19 213 -22 501 -22
288 0 358 3 501 22 963 127 1827 542 2488 1195 397 393 705 842 920 1344 186
436 299 877 342 1338 14 151 13 968 -1 1130 -106 1211 -713 2322 -1662 3042
-795 604 -1765 909 -2770 872z m537 -1723 c383 -57 732 -186 1040 -387 202
-131 402 -305 547 -477 l71 -83 274 273 273 273 0 -853 0 -852 -852 0 -853 0
263 263 c144 144 262 266 262 270 0 24 -162 215 -255 300 -166 152 -410 297
-606 361 -485 157 -1026 83 -1449 -198 -311 -207 -544 -510 -666 -865 l-44
-126 -440 -3 c-242 -1 -440 1 -440 5 0 5 11 57 25 117 184 813 736 1477 1500
1803 250 107 485 165 800 197 82 8 454 -4 550 -18z m-1473 -3229 c-144 -144
-262 -266 -262 -270 0 -27 147 -197 265 -305 498 -461 1238 -567 1850 -268
413 203 728 564 869 996 l34 105 441 3 441 2 -4 -22 c-3 -13 -10 -50 -17 -83
-34 -179 -119 -416 -226 -630 -315 -626 -910 -1114 -1588 -1300 -957 -262
-1977 43 -2617 783 l-81 94 -274 -274 -273 -273 0 853 0 852 852 0 853 0 -263
-263z"/>
</g>
</svg>
